<svg xmlns="http://www.w3.org/2000/svg" viewBox="0 0 333331 267872" shape-rendering="geometricPrecision" text-rendering="geometricPrecision" image-rendering="optimizeQuality" fill-rule="evenodd" clip-rule="evenodd"><path d="M208099 64019l42760 43315v20375l-20232 1v-15317h-16762V95629h-16043l-4638-15109c-7383 4925-16344 7811-25999 7811-25290 0-45802-19778-45802-44164C121383 19777 141895 0 167185 0c25287 0 45797 19778 45797 44167 0 7140-1761 13883-4881 19852h-1zM0 123339h67357v119843H0V123339zm80916 109783V132962h45050c19099 3425 38197 13780 57297 25805h34991c15839 955 24133 17007 8748 27555-12275 8996-28460 8487-45050 6998-11442-563-11943 14819 0 14870 4140 321 8653-650 12588-654 20711-20 37770-3979 48209-20340l5248-12246 52049-25806c26047-8576 44555 18671 25368 37615-37699 27429-76366 50000-115906 68231-28721 17470-57443 16877-86164 0l-42426-21869zm79685-203106c4513 0 8177 3661 8177 8177s-3663 8177-8177 8177c-4516 0-8177-3661-8177-8177s3661-8177 8177-8177z"/></svg>